<svg xmlns="http://www.w3.org/2000/svg" width="16" height="15.25" viewBox="0 0 16 15.25">
  <path id="Path_583" data-name="Path 583" d="M68.2,103.9c-4.41,0-8,2.914-8,6.494,0,3.208,2.845,5.9,6.69,6.406.937.2.829.544.618,1.805-.034.2-.162.79.692.432a25.854,25.854,0,0,0,6.288-4.645,5.8,5.8,0,0,0,1.712-4C76.2,106.814,72.61,103.9,68.2,103.9Zm-2.825,8.4a.155.155,0,0,1-.157.157H62.976a.166.166,0,0,1-.108-.044.144.144,0,0,1-.044-.108V108.82a.155.155,0,0,1,.157-.157h.559a.155.155,0,0,1,.157.157v2.766h1.525a.157.157,0,0,1,.152.157Zm1.354,0a.155.155,0,0,1-.157.157h-.559a.155.155,0,0,1-.157-.157V108.82a.155.155,0,0,1,.157-.157h.559a.158.158,0,0,1,.157.157Zm3.865,0a.155.155,0,0,1-.157.157h-.559a.162.162,0,0,1-.128-.064l-1.6-2.158v2.07a.155.155,0,0,1-.157.157h-.559a.155.155,0,0,1-.157-.157v-3.487a.155.155,0,0,1,.157-.157h.554a.148.148,0,0,1,.128.069l1.6,2.158v-2.07a.155.155,0,0,1,.157-.157h.559a.155.155,0,0,1,.162.152Zm3.1-2.928a.155.155,0,0,1-.157.157H72.011v.589h1.525a.155.155,0,0,1,.157.157v.564a.155.155,0,0,1-.157.157H72.011v.589h1.525a.155.155,0,0,1,.157.157v.559a.155.155,0,0,1-.157.157H71.3a.158.158,0,0,1-.157-.157V108.82a.158.158,0,0,1,.157-.157h2.242a.165.165,0,0,1,.157.157Z" transform="translate(-60.2 -103.9)" fill="#fff"/>
</svg>
